GIL03_free4_ik
nRows=3
nColumns=375

# SIMM Motion File Header:
name GIL03_free4_ik
datacolumns 375
datarows 3
otherdata 1
range 0.58333000 0.60000000
endheader
time	pelvis_tx	pelvis_ty	pelvis_tz	pelvis_tilt	pelvis_list	pelvis_rotation	hip_flexion_r	hip_adduction_r	hip_rotation_r	knee_angle_r	ankle_angle_r	hip_flexion_l	hip_adduction_l	hip_rotation_l	knee_angle_l	ankle_angle_l	lumbar_extension	lumbar_bending	lumbar_rotation	subtalar_angle_r	mtp_angle_r	subtalar_angle_l	mtp_angle_l	asis_r_px	asis_r_py	asis_r_pz	asis_l_px	asis_l_py	asis_l_pz	midasis_px	midasis_py	midasis_pz	psis_r_px	psis_r_py	psis_r_pz	psis_l_px	psis_l_py	psis_l_pz	hip_r_px	hip_r_py	hip_r_pz	hip_l_px	hip_l_py	hip_l_pz	midhip_px	midhip_py	midhip_pz	epicondLat_r_px	epicondLat_r_py	epicondLat_r_pz	epicondMed_r_px	epicondMed_r_py	epicondMed_r_pz	thighwand_r_px	thighwand_r_py	thighwand_r_pz	upperleg1_r_px	upperleg1_r_py	upperleg1_r_pz	upperleg2_r_px	upperleg2_r_py	upperleg2_r_pz	malleolusLat_r_px	malleolusLat_r_py	malleolusLat_r_pz	malleolusMedv_r_px	malleolusMedv_r_py	malleolusMedv_r_pz	shankwand_r_px	shankwand_r_py	shankwand_r_pz	lowerleg1_r_px	lowerleg1_r_py	lowerleg1_r_pz	knee_r_px	knee_r_py	knee_r_pz	ankle_r_px	ankle_r_py	ankle_r_pz	toe_r_px	toe_r_py	toe_r_pz	epicondLat_l_px	epicondLat_l_py	epicondLat_l_pz	epicondMed_l_px	epicondMed_l_py	epicondMed_l_pz	thighwand_l_px	thighwand_l_py	thighwand_l_pz	upperleg1_l_px	upperleg1_l_py	upperleg1_l_pz	upperleg2_l_px	upperleg2_l_py	upperleg2_l_pz	malleolusLat_l_px	malleolusLat_l_py	malleolusLat_l_pz	malleolusMedv_l_px	malleolusMedv_l_py	malleolusMedv_l_pz	shankwand_l_px	shankwand_l_py	shankwand_l_pz	lowerleg1_l_px	lowerleg1_l_py	lowerleg1_l_pz	knee_l_px	knee_l_py	knee_l_pz	ankle_l_px	ankle_l_py	ankle_l_pz	toe_l_px	toe_l_py	toe_l_pz	subclavicle_r_px	subclavicle_r_py	subclavicle_r_pz	subclavicle_l_px	subclavicle_l_py	subclavicle_l_pz	neck_px	neck_py	neck_pz	sternalnotch_px	sternalnotch_py	sternalnotch_pz	xyphoidprocess_px	xyphoidprocess_py	xyphoidprocess_pz	midhip_tx	midhip_ty	midhip_tz	hip_r_tx	hip_r_ty	hip_r_tz	hip_l_tx	hip_l_ty	hip_l_tz	knee_r_tx	knee_r_ty	knee_r_tz	knee_l_tx	knee_l_ty	knee_l_tz	ankle_r_tx	ankle_r_ty	ankle_r_tz	ankle_l_tx	ankle_l_ty	ankle_l_tz	midasis_tx	midasis_ty	midasis_tz	asis_r_tx	asis_r_ty	asis_r_tz	asis_l_tx	asis_l_ty	asis_l_tz	psis_r_tx	psis_r_ty	psis_r_tz	psis_l_tx	psis_l_ty	psis_l_tz	epicondLat_r_tx	epicondLat_r_ty	epicondLat_r_tz	epicondLat_l_tx	epicondLat_l_ty	epicondLat_l_tz	epicondMed_r_tx	epicondMed_r_ty	epicondMed_r_tz	epicondMed_l_tx	epicondMed_l_ty	epicondMed_l_tz	malleolusLat_r_tx	malleolusLat_r_ty	malleolusLat_r_tz	malleolusLat_l_tx	malleolusLat_l_ty	malleolusLat_l_tz	malleolusMedv_r_tx	malleolusMedv_r_ty	malleolusMedv_r_tz	malleolusMedv_l_tx	malleolusMedv_l_ty	malleolusMedv_l_tz	neck_tx	neck_ty	neck_tz	subclavicle_r_tx	subclavicle_r_ty	subclavicle_r_tz	subclavicle_l_tx	subclavicle_l_ty	subclavicle_l_tz	sternalnotch_tx	sternalnotch_ty	sternalnotch_tz	xyphoidprocess_tx	xyphoidprocess_ty	xyphoidprocess_tz	thighwand_r_tx	thighwand_r_ty	thighwand_r_tz	thighwand_l_tx	thighwand_l_ty	thighwand_l_tz	upperleg1_r_tx	upperleg1_r_ty	upperleg1_r_tz	upperleg1_l_tx	upperleg1_l_ty	upperleg1_l_tz	upperleg2_r_tx	upperleg2_r_ty	upperleg2_r_tz	upperleg2_l_tx	upperleg2_l_ty	upperleg2_l_tz	shankwand_r_tx	shankwand_r_ty	shankwand_r_tz	shankwand_l_tx	shankwand_l_ty	shankwand_l_tz	lowerleg1_r_tx	lowerleg1_r_ty	lowerleg1_r_tz	lowerleg1_l_tx	lowerleg1_l_ty	lowerleg1_l_tz	toe_r_tx	toe_r_ty	toe_r_tz	toe_l_tx	toe_l_ty	toe_l_tz	ground_force_vx	ground_force_vy	ground_force_vz	ground_force_px	ground_force_py	ground_force_pz	ground_force_vx	ground_force_vy	ground_force_vz	ground_force_px	ground_force_py	ground_force_pz	ground_torque_x	ground_torque_y	ground_torque_z	ground_torque_x	ground_torque_y	ground_torque_z	ground_marker_px	ground_marker_py	ground_marker_pz	ground_marker_px	ground_marker_py	ground_marker_pz	ground_marker_px	ground_marker_py	ground_marker_pz	ground_marker_px	ground_marker_py	ground_marker_pz	ground_marker_px	ground_marker_py	ground_marker_pz	ground_marker_px	ground_marker_py	ground_marker_pz	ground_marker_px	ground_marker_py	ground_marker_pz	ground_marker_px	ground_marker_py	ground_marker_pz	ground_marker_px	ground_marker_py	ground_marker_pz	ground_marker_px	ground_marker_py	ground_marker_pz	ground_marker_px	ground_marker_py	ground_marker_pz	ground_marker_px	ground_marker_py	ground_marker_pz	ground_marker_px	ground_marker_py	ground_marker_pz	ground_marker_px	ground_marker_py	ground_marker_pz	ground_marker_px	ground_marker_py	ground_marker_pz	ground_marker_px	ground_marker_py	ground_marker_pz	ground_marker_px	ground_marker_py	ground_marker_pz	ground_marker_px	ground_marker_py	ground_marker_pz	ground_marker_px	ground_marker_py	ground_marker_pz	ground_marker_px	ground_marker_py	ground_marker_pz	ground_marker_px	ground_marker_py	ground_marker_pz	ground_marker_px	ground_marker_py	ground_marker_pz	ground_marker_px	ground_marker_py	ground_marker_pz	ground_marker_px	ground_marker_py	ground_marker_pz	ground_marker_px	ground_marker_py	ground_marker_pz	ground_marker_px	ground_marker_py	ground_marker_pz	ground_marker_px	ground_marker_py	ground_marker_pz	ground_marker_px	ground_marker_py	ground_marker_pz	ground_marker_px	ground_marker_py	ground_marker_pz	ground_marker_px	ground_marker_py	ground_marker_pz	ground_marker_px	ground_marker_py	ground_marker_pz	ground_marker_px	ground_marker_py	ground_marker_pz	ground_marker_px	ground_marker_py	ground_marker_pz	ground_marker_px	ground_marker_py	ground_marker_pz	ground_marker_px	ground_marker_py	ground_marker_pz	ground_marker_px	ground_marker_py	ground_marker_pz	ground_marker_px	ground_marker_py	ground_marker_pz
      0.58333000	      0.58786704	      0.85952194	     -0.22727674	      3.56386778	     -0.32486043	     -3.54183815	    -16.69399098	     -0.48425994	      2.17370629	    -27.15315611	      7.66488643	     23.87148531	     -0.23217845	      7.82018020	    -21.28288514	     -4.18704896	    -13.54916990	     -0.48183687	     16.14183829	      0.00000000	      0.00000000	      0.00000000	      0.00000000	      0.63065910	      0.86613142	     -0.13165118	      0.62565638	      0.85858181	     -0.33315641	      0.59885816	      0.86021036	     -0.22659511	      0.47505532	      0.90599049	     -0.20569289	      0.47335395	      0.90463523	     -0.26055617	      0.53151938	      0.80417103	     -0.16474201	      0.53968088	      0.80393308	     -0.29610512	      0.53560013	      0.80405206	     -0.23042357	      0.46831974	      0.41722539	     -0.10333281	      0.44292142	      0.41706903	     -0.20988458	      0.63739465	      0.54531080	     -0.17131451	      0.58143776	      0.61397441	     -0.12237031	      0.54973651	      0.53403510	     -0.11959467	      0.16736070	      0.12871817	     -0.13319583	      0.20393767	      0.11787532	     -0.19599579	      0.24285080	      0.22231087	     -0.05788769	      0.25263300	      0.22416975	     -0.09904461	      0.44628750	      0.43743156	     -0.16619582	      0.18831508	      0.13298617	     -0.17174383	      0.25891067	      0.04251399	     -0.11601856	      0.74284800	      0.47286849	     -0.34248610	      0.71596915	      0.44781916	     -0.23953516	      0.76749567	      0.66954681	     -0.25427635	      0.69609044	      0.68073815	     -0.32500314	      0.73354306	      0.60137228	     -0.31735931	      0.75978744	      0.06052886	     -0.34744036	      0.77498025	      0.07122600	     -0.28207597	      0.71090615	      0.17478953	     -0.40640516	      0.72247751	      0.18038178	     -0.36509161	      0.71200025	      0.47015592	     -0.28641568	      0.75720747	      0.07403794	     -0.30414696	      0.88306832	      0.03740380	     -0.33364813	      0.60660391	      1.24473022	     -0.18460659	      0.58557295	      1.24594599	     -0.29177109	      0.49569603	      1.29655020	     -0.21347098	      0.57985323	      1.25402797	     -0.24022095	      0.65970339	      1.09900027	     -0.25638026	      0.54191400	      0.81202200	     -0.23705700	      0.54137100	      0.79230200	     -0.17316400	      0.53825600	      0.78980900	     -0.29056800	      0.45251900	      0.42519000	     -0.17072100	      0.70788400	      0.46541600	     -0.28399000	      0.19176800	      0.12435100	     -0.17698500	      0.75254800	      0.06537500	     -0.28997400	      0.59708600	      0.87292700	     -0.22916200	      0.59135300	      0.87365100	     -0.12967800	      0.60281900	      0.87220300	     -0.32864600	      0.43679200	      0.89827700	     -0.21995800	      0.44035000	      0.89528500	     -0.27483100	      0.45727800	      0.42440300	     -0.11593300	      0.72511500	      0.47339000	     -0.33507600	      0.45825800	      0.42592500	     -0.22979000	      0.71049700	      0.44559800	     -0.24282000	      0.18234900	      0.13175300	     -0.14039600	      0.75992500	      0.06676400	     -0.32773500	      0.21294100	      0.12673700	     -0.20574200	      0.77144700	      0.07846500	     -0.26267000	      0.50073800	      1.31242200	     -0.21412100	      0.60587300	      1.23374600	     -0.18454500	      0.58471700	      1.23565000	     -0.29112400	      0.58022300	      1.24647700	     -0.23980300	      0.62582300	      1.07732800	     -0.25091800	      0.63443300	      0.57038500	     -0.16235800	      0.74596300	      0.66904700	     -0.24633700	      0.56479700	      0.63271300	     -0.12325300	      0.67983900	      0.67933100	     -0.32235600	      0.53996100	      0.55100500	     -0.12528500	      0.72281600	      0.60252600	     -0.31333300	      0.25472300	      0.22909800	     -0.06945300	      0.71826000	      0.17936900	     -0.39192000	      0.25941100	      0.23144100	     -0.11099600	      0.72832800	      0.18579100	     -0.35019600	      0.27082500	      0.04567300	     -0.14341000	      0.87997200	      0.04359100	     -0.29743800	     60.10884757	    188.24521845	      1.97058701	      0.29522058	      0.00000000	     -0.15846817	    -46.27156593	    280.93409243	     -2.02869263	      0.75226416	      0.00000000	     -0.29364383	      0.00000000	      0.27779663	      0.00000000	      0.00000000	      0.75993817	      0.00000000	      0.54191351	      0.81202233	     -0.23705664	      0.54137111	      0.79230171	     -0.17316425	      0.53825587	      0.78980911	     -0.29056829	      0.45251942	      0.42518970	     -0.17072131	      0.70788354	      0.46541554	     -0.28399020	      0.19176756	      0.12435140	     -0.17698522	      0.75254810	      0.06537519	     -0.28997368	      0.59708595	      0.87292731	     -0.22916186	      0.59135318	      0.87365144	     -0.12967755	      0.60281867	      0.87220323	     -0.32864615	      0.43679154	      0.89827698	     -0.21995768	      0.44034985	      0.89528465	     -0.27483094	      0.45727777	      0.42440262	     -0.11593318	      0.72511482	      0.47338998	     -0.33507583	      0.45825839	      0.42592484	     -0.22979027	      0.71049654	      0.44559789	     -0.24281977	      0.18234880	      0.13175328	     -0.14039630	      0.75992537	      0.06676365	     -0.32773471	      0.21294121	      0.12673698	     -0.20574214	      0.77144665	      0.07846450	     -0.26266953	      0.50073844	      1.31242168	     -0.21412051	      0.60587335	      1.23374557	     -0.18454519	      0.58471745	      1.23564959	     -0.29112414	      0.58022261	      1.24647713	     -0.23980318	      0.62582254	      1.07732809	     -0.25091779	      0.63443279	      0.57038468	     -0.16235849	      0.74596339	      0.66904676	     -0.24633698	      0.56479681	      0.63271290	     -0.12325282	      0.67983878	      0.67933106	     -0.32235572	      0.53996098	      0.55100548	     -0.12528487	      0.72281569	      0.60252553	     -0.31333274	      0.25472280	      0.22909757	     -0.06945261	      0.71826011	      0.17936938	     -0.39192045	      0.25941125	      0.23144080	     -0.11099606	      0.72832781	      0.18579081	     -0.35019642	      0.27082455	      0.04567300	     -0.14341006	      0.87997204	      0.04359071	     -0.29743797
      0.59167000	      0.60009173	      0.86064854	     -0.22864716	      3.79871946	     -0.00953954	     -3.53351605	    -16.10734000	     -1.22572420	      1.63420528	    -29.60789140	      5.41878085	     23.41501778	      0.39260475	      8.15665440	    -22.59764858	     -3.26179780	    -13.64494150	     -0.80031716	     15.81067987	      0.00000000	      0.00000000	      0.00000000	      0.00000000	      0.64290507	      0.86690912	     -0.13300765	      0.63783065	      0.86044376	     -0.33454879	      0.61108028	      0.86137826	     -0.22796713	      0.48710159	      0.90653517	     -0.20675388	      0.48537783	      0.90547371	     -0.26162293	      0.54400319	      0.80472512	     -0.16638947	      0.55209867	      0.80524072	     -0.29775587	      0.54805093	      0.80498292	     -0.23207267	      0.48567643	      0.41757687	     -0.10153242	      0.46091319	      0.41603313	     -0.20822252	      0.65340407	      0.54727369	     -0.16979575	      0.59623586	      0.61564723	     -0.12185563	      0.56560195	      0.53531604	     -0.11847484	      0.17597999	      0.13631709	     -0.13078769	      0.21259858	      0.12385709	     -0.19326251	      0.25372857	      0.22832001	     -0.05581912	      0.26380713	      0.22952996	     -0.09692870	      0.46402669	      0.43643677	     -0.16470516	      0.19728072	      0.13963116	     -0.16923955	      0.26139788	      0.04461898	     -0.11324015	      0.75428387	      0.47326178	     -0.34183490	      0.72629894	      0.44843323	     -0.23912549	      0.77891746	      0.66992297	     -0.25358305	      0.70825134	      0.68134757	     -0.32501141	      0.74528694	      0.60182990	     -0.31692599	      0.76046832	      0.06013964	     -0.34801526	      0.77539912	      0.07022103	     -0.28249281	      0.71515479	      0.17585339	     -0.40699610	      0.72652848	      0.18100412	     -0.36557040	      0.72316086	      0.47070720	     -0.28601217	      0.75789177	      0.07357739	     -0.30469946	      0.88353266	      0.03563015	     -0.33346937	      0.61769914	      1.24579767	     -0.18546844	      0.59711994	      1.24687607	     -0.29272209	      0.50680658	      1.29736036	     -0.21484792	      0.59116498	      1.25499098	     -0.24120377	      0.67140646	      1.10011665	     -0.25688828	      0.55456300	      0.81276300	     -0.23877000	      0.55390300	      0.79270800	     -0.17489400	      0.55087800	      0.79084300	     -0.29231200	      0.46994400	      0.42391300	     -0.16930700	      0.71892400	      0.46611000	     -0.28364400	      0.20101800	      0.13122800	     -0.17485100	      0.75290000	      0.06516300	     -0.29017900	      0.60931700	      0.87387100	     -0.23041200	      0.60351000	      0.87402800	     -0.13085700	      0.61512400	      0.87371400	     -0.32996600	      0.44898100	      0.89843500	     -0.22087800	      0.45250100	      0.89586900	     -0.27576700	      0.47434800	      0.42374100	     -0.11448400	      0.73674800	      0.47397500	     -0.33454200	      0.47542900	      0.42379200	     -0.22756700	      0.72306600	      0.44701900	     -0.24331200	      0.19167300	      0.13912300	     -0.13834700	      0.76183200	      0.06653000	     -0.32760300	      0.22266000	      0.13314000	     -0.20318900	      0.77291800	      0.07763600	     -0.26246700	      0.51179800	      1.31316900	     -0.21545600	      0.61704900	      1.23482200	     -0.18554300	      0.59629800	      1.23651100	     -0.29207300	      0.59151700	      1.24741200	     -0.24081500	      0.63770300	      1.07836800	     -0.25155400	      0.65035000	      0.57134600	     -0.16117800	      0.75759000	      0.66989400	     -0.24563300	      0.57986100	      0.63277300	     -0.12337000	      0.69268600	      0.68109800	     -0.32183100	      0.55570200	      0.55096100	     -0.12440400	      0.73581600	      0.60448200	     -0.31261000	      0.26653900	      0.23470300	     -0.06775400	      0.72589200	      0.17997000	     -0.39290900	      0.27145900	      0.23694600	     -0.10914100	      0.73539000	      0.18574700	     -0.35106600	      0.27458200	      0.04721800	     -0.14325700	      0.88144500	      0.04181900	     -0.29662600	     46.58642937	    130.22033100	      3.79484058	      0.29830603	      0.00000000	     -0.15888852	    -55.77673157	    317.03842042	      2.30959291	      0.75929517	      0.00000000	     -0.29382083	      0.00000000	      0.13922171	      0.00000000	      0.00000000	      0.63281659	      0.00000000	      0.55456328	      0.81276333	     -0.23877022	      0.55390340	      0.79270750	     -0.17489409	      0.55087787	      0.79084307	     -0.29231215	      0.46994448	      0.42391291	     -0.16930677	      0.71892399	      0.46611008	     -0.28364351	      0.20101829	      0.13122751	     -0.17485148	      0.75289994	      0.06516347	     -0.29017857	      0.60931683	      0.87387091	     -0.23041186	      0.60350972	      0.87402773	     -0.13085724	      0.61512387	      0.87371409	     -0.32996646	      0.44898102	      0.89843512	     -0.22087821	      0.45250112	      0.89586926	     -0.27576715	      0.47434792	      0.42374104	     -0.11448359	      0.73674810	      0.47397518	     -0.33454236	      0.47542858	      0.42379230	     -0.22756696	      0.72306579	      0.44701895	     -0.24331155	      0.19167300	      0.13912264	     -0.13834693	      0.76183182	      0.06653033	     -0.32760319	      0.22266035	      0.13313992	     -0.20318910	      0.77291834	      0.07763606	     -0.26246652	      0.51179779	      1.31316936	     -0.21545638	      0.61704934	      1.23482227	     -0.18554315	      0.59629786	      1.23651063	     -0.29207259	      0.59151739	      1.24741185	     -0.24081476	      0.63770330	      1.07836771	     -0.25155446	      0.65034992	      0.57134616	     -0.16117784	      0.75758982	      0.66989434	     -0.24563272	      0.57986081	      0.63277322	     -0.12336990	      0.69268584	      0.68109828	     -0.32183114	      0.55570167	      0.55096096	     -0.12440434	      0.73581642	      0.60448241	     -0.31261036	      0.26653901	      0.23470342	     -0.06775359	      0.72589153	      0.17996970	     -0.39290923	      0.27145872	      0.23694567	     -0.10914129	      0.73539048	      0.18574694	     -0.35106614	      0.27458179	      0.04721766	     -0.14325663	      0.88144481	      0.04181939	     -0.29662630
      0.60000000	      0.61212968	      0.86181823	     -0.22977405	      4.01051228	      0.28063513	     -3.57145313	    -15.30363386	     -1.95100503	      1.04332464	    -32.23378102	      3.18826145	     22.92509957	      0.91709031	      8.20687249	    -23.79550811	     -2.18362309	    -13.73537895	     -1.12524868	     15.52918625	      0.00000000	      0.00000000	      0.00000000	      0.00000000	      0.65489029	      0.86774923	     -0.13408996	      0.64990153	      0.86229279	     -0.33566307	      0.62311525	      0.86258507	     -0.22908673	      0.49896402	      0.90717494	     -0.20768390	      0.49726101	      0.90638688	     -0.26255820	      0.55622913	      0.80537131	     -0.16782045	      0.56436288	      0.80658656	     -0.29917988	      0.56029600	      0.80597894	     -0.23350017	      0.50397370	      0.41796434	     -0.09942876	      0.48009401	      0.41491115	     -0.20628763	      0.67001330	      0.54980421	     -0.16771349	      0.61130991	      0.61767641	     -0.12093021	      0.58201960	      0.53687244	     -0.11696007	      0.18594310	      0.14392084	     -0.12896285	      0.22271753	      0.12986146	     -0.19100519	      0.26566858	      0.23431315	     -0.05411139	      0.27612694	      0.23486901	     -0.09514007	      0.48279055	      0.43533166	     -0.16294000	      0.20765657	      0.14628110	     -0.16725390	      0.26490985	      0.04721604	     -0.11084083	      0.76499711	      0.47344089	     -0.34150830	      0.73634631	      0.44898039	     -0.23889421	      0.79022244	      0.67015506	     -0.25354217	      0.71999067	      0.68180455	     -0.32536152	      0.75655816	      0.60210783	     -0.31691643	      0.76076417	      0.05985401	     -0.34845983	      0.77569129	      0.06942443	     -0.28285997	      0.71868539	      0.17680875	     -0.40738940	      0.73002453	      0.18158691	     -0.36590961	      0.73382058	      0.47113156	     -0.28579587	      0.75836423	      0.07327302	     -0.30512808	      0.88377536	      0.03442032	     -0.33369117	      0.62873947	      1.24692115	     -0.18630066	      0.60860711	      1.24783232	     -0.29364063	      0.51787926	      1.29825025	     -0.21620651	      0.60242233	      1.25599930	     -0.24215762	      0.68300391	      1.10124930	     -0.25731694	      0.56686300	      0.81342500	     -0.24044900	      0.56617100	      0.79325400	     -0.17655300	      0.56334900	      0.79198100	     -0.29398400	      0.48837600	      0.42261100	     -0.16794000	      0.72948300	      0.46669600	     -0.28357800	      0.21167700	      0.13821400	     -0.17270400	      0.75309000	      0.06510500	     -0.29037000	      0.62137300	      0.87490700	     -0.23156000	      0.61539400	      0.87453100	     -0.13194100	      0.62735200	      0.87528300	     -0.33117900	      0.46100900	      0.89873800	     -0.22183800	      0.46455000	      0.89662000	     -0.27675300	      0.49228200	      0.42306600	     -0.11308100	      0.74769000	      0.47437000	     -0.33437100	      0.49414900	      0.42163800	     -0.22555000	      0.73340200	      0.44768900	     -0.24374800	      0.20250800	      0.14652500	     -0.13624700	      0.76324100	      0.06632900	     -0.32748700	      0.23379900	      0.13938900	     -0.20055000	      0.77395300	      0.07721500	     -0.26220600	      0.52276000	      1.31411900	     -0.21673400	      0.62824700	      1.23591400	     -0.18648100	      0.60786700	      1.23737500	     -0.29292600	      0.60276600	      1.24840700	     -0.24180300	      0.64947600	      1.07939400	     -0.25208400	      0.66668000	      0.57266600	     -0.15964100	      0.76919500	      0.67052200	     -0.24559600	      0.59513800	      0.63309600	     -0.12296600	      0.70534100	      0.68223700	     -0.32178600	      0.57205800	      0.55096400	     -0.12326300	      0.74785500	      0.60524600	     -0.31245900	      0.27985000	      0.24007500	     -0.06598200	      0.73239100	      0.18039300	     -0.39372600	      0.28518900	      0.24224600	     -0.10711600	      0.74127300	      0.18585000	     -0.35163900	      0.27951600	      0.04930100	     -0.14305800	      0.88256800	      0.04061300	     -0.29627400	     30.70982859	     79.29332806	      3.76168663	      0.30294080	      0.00000000	     -0.15905582	    -63.40000361	    355.36498548	      7.67630329	      0.76491223	      0.00000000	     -0.29400415	      0.00000000	      0.04137517	      0.00000000	      0.00000000	      0.51439514	      0.00000000	      0.56686342	      0.81342548	     -0.24044868	      0.56617057	      0.79325384	     -0.17655253	      0.56334859	      0.79198080	     -0.29398355	      0.48837614	      0.42261133	     -0.16793993	      0.72948265	      0.46669620	     -0.28357828	      0.21167722	      0.13821433	     -0.17270385	      0.75308985	      0.06510507	     -0.29036957	      0.62137306	      0.87490714	     -0.23155971	      0.61539441	      0.87453109	     -0.13194063	      0.62735176	      0.87528324	     -0.33117878	      0.46100909	      0.89873809	     -0.22183779	      0.46454999	      0.89662033	     -0.27675340	      0.49228236	      0.42306620	     -0.11308070	      0.74768990	      0.47437048	     -0.33437055	      0.49414873	      0.42163834	     -0.22555019	      0.73340213	      0.44768879	     -0.24374752	      0.20250762	      0.14652507	     -0.13624701	      0.76324058	      0.06632946	     -0.32748708	      0.23379873	      0.13938920	     -0.20054992	      0.77395272	      0.07721468	     -0.26220578	      0.52276033	      1.31411946	     -0.21673444	      0.62824702	      1.23591399	     -0.18648109	      0.60786676	      1.23737502	     -0.29292610	      0.60276586	      1.24840736	     -0.24180265	      0.64947563	      1.07939374	     -0.25208396	      0.66667962	      0.57266623	     -0.15964057	      0.76919532	      0.67052239	     -0.24559623	      0.59513807	      0.63309628	     -0.12296622	      0.70534050	      0.68223661	     -0.32178584	      0.57205772	      0.55096430	     -0.12326266	      0.74785525	      0.60524565	     -0.31245893	      0.27985030	      0.24007533	     -0.06598214	      0.73239148	      0.18039341	     -0.39372590	      0.28518927	      0.24224584	     -0.10711637	      0.74127316	      0.18585035	     -0.35163912	      0.27951592	      0.04930099	     -0.14305761	      0.88256836	      0.04061274	     -0.29627389
